<svg fill="{{ .fill }}" width="{{ .width }}" height="{{ .height }}" version="1.1" id="Capa_1" xmlns="http://www.w3.org/2000/svg" xmlns:xlink="http://www.w3.org/1999/xlink" x="0px" y="0px"
   width="438.536px" height="438.536px" viewBox="0 0 438.536 438.536" style="enable-background:new 0 0 438.536 438.536;"
   xml:space="preserve">
  <g
   id="g4"
   transform="scale(6.0972222)">
    <path
   d="M 8,0 C 3.581722,0 0,3.581722 0,8 v 56 c 0,4.418278 3.581722,8 8,8 h 56 c 4.418278,0 8,-3.581722 8,-8 V 8 C 72,3.581722 68.418278,0 64,0 Z M 35.998047,13 C 49.253547,13 60,23.786151 60,37.095703 c 0,10.641015 -6.870891,19.666769 -16.400391,22.859375 -1.218,0.236434 -1.648437,-0.513658 -1.648437,-1.158203 0,-0.790622 0.0293,-3.388156 0.0293,-6.609375 0,-2.248378 -0.767907,-3.717 -1.628907,-4.460938 5.346,-0.596354 10.957032,-2.63508 10.957032,-11.890624 0,-2.630888 -0.927797,-4.781643 -2.466797,-6.466797 0.2475,-0.609908 1.071219,-3.0574 -0.238281,-6.375 0,0 -2.01275,-0.648558 -6.59375,2.46875 -1.917,-0.534611 -3.969313,-0.800007 -6.007813,-0.810547 -2.0415,0.01054 -4.094265,0.275936 -6.009765,0.810547 -4.584,-3.117308 -6.59961,-2.46875 -6.59961,-2.46875 -1.305,3.3176 -0.481875,5.765092 -0.234375,6.375 -1.536,1.685154 -2.470703,3.835909 -2.470703,6.466797 0,9.232955 5.602141,11.299801 10.931641,11.908203 -0.6855,0.602378 -1.305938,1.663554 -1.523438,3.220703 -1.368,0.617438 -4.842375,1.680086 -6.984375,-2.001953 0,0 -1.268281,-2.31225 -3.675781,-2.482422 0,0 -2.345516,-0.03056 -0.166016,1.464843 0,10e-7 1.573563,0.740449 2.664063,3.523438 0,0 1.409437,4.686719 8.085937,3.230469 0.012,2.010438 0.0332,3.525396 0.0332,4.097656 0,0.638521 -0.438672,1.383483 -1.638672,1.162109 C 18.875563,56.772402 12,47.73973 12,37.095703 12,23.786151 22.745547,13 35.998047,13 Z"
   id="path2" />
  </g>
</svg>
